<svg width="34" height="24" viewBox="0 0 34 24" fill="none" xmlns="http://www.w3.org/2000/svg">
<path fill-rule="evenodd" clip-rule="evenodd" d="M20.6713 4.93704C21.1888 4.29014 21.0839 3.34621 20.437 2.82869C19.7901 2.31118 18.8462 2.41606 18.3287 3.06295L12.3361 10.5537C12.1267 10.8109 12.0009 11.1388 12 11.4961C12 11.4974 12 11.4987 12 11.5C12 11.5013 12 11.5026 12 11.5039C12.0009 11.8612 12.1268 12.1892 12.3362 12.4464L18.3287 19.937C18.8462 20.5839 19.7901 20.6888 20.437 20.1713C21.0839 19.6538 21.1888 18.7098 20.6713 18.063L16.6209 13H30.5C31.3284 13 32 12.3284 32 11.5C32 10.6716 31.3284 9.99999 30.5 9.99999H16.6209L20.6713 4.93704Z" fill="#343A40"/>
</svg>
